HIERARCHY
ROOT Hips
{
	OFFSET 0.000000 0.000000 0.000000 
	CHANNELS 6 Xposition Yposition Zposition Zrotation Yrotation Xrotation
	JOINT LeftUpLeg
	{
		OFFSET 1.363060 -1.794630 0.839290 
		CHANNELS 3 Zrotation Yrotation Xrotation
		JOINT LeftLeg
		{
			OFFSET 2.448110 -6.726130 0.000000 
			CHANNELS 3 Zrotation Yrotation Xrotation
			JOINT LeftFoot
			{
				OFFSET 2.562200 -7.039590 0.000000 
				CHANNELS 3 Zrotation Yrotation Xrotation
				JOINT LeftToeBase
				{
					OFFSET 0.157640 -0.433110 2.322550 
					CHANNELS 3 Zrotation Yrotation Xrotation
					End Site
					{
						OFFSET 0.000000 0.000000 0.000000 
					}
				}
			}
		}
	}
	JOINT RightUpLeg
	{
		OFFSET -1.305520 -1.794630 0.839290 
		CHANNELS 3 Zrotation Yrotation Xrotation
		JOINT RightLeg
		{
			OFFSET -2.542530 -6.985550 0.000000 
			CHANNELS 3 Zrotation Yrotation Xrotation
			JOINT RightFoot
			{
				OFFSET -2.568260 -7.056230 0.000000 
				CHANNELS 3 Zrotation Yrotation Xrotation
				JOINT RightToeBase
				{
					OFFSET -0.164730 -0.452590 2.363150 
					CHANNELS 3 Zrotation Yrotation Xrotation
					End Site
					{
						OFFSET 0.000000 0.000000 0.000000 
					}
				}
			}
		}
	}
	JOINT Spine
	{
		OFFSET 0.028270 2.035590 -0.193380 
		CHANNELS 3 Zrotation Yrotation Xrotation
		JOINT Spine1
		{
			OFFSET 0.056720 2.048850 -0.042750 
			CHANNELS 3 Zrotation Yrotation Xrotation
			JOINT Neck1
			{
				OFFSET -0.054170 1.746240 0.172020 
				CHANNELS 3 Zrotation Yrotation Xrotation
				JOINT Head
				{
					OFFSET 0.104070 1.761360 -0.123970 
					CHANNELS 3 Zrotation Yrotation Xrotation
					End Site
					{
						OFFSET 0.000000 0.000000 0.000000 
					}
				}
			}
			JOINT LeftArm
			{
				OFFSET 3.362410 1.200890 -0.311210 
				CHANNELS 3 Zrotation Yrotation Xrotation
				JOINT LeftForeArm
				{
					OFFSET 4.983000 -0.000000 -0.000000 
					CHANNELS 3 Zrotation Yrotation Xrotation
					JOINT LeftHand
					{
						OFFSET 3.483560 -0.000000 -0.000000 
						CHANNELS 3 Zrotation Yrotation Xrotation
						JOINT LeftHandIndex1
						{
							OFFSET 0.715260 -0.000000 -0.000000 
							CHANNELS 3 Zrotation Yrotation Xrotation
							End Site
							{
								OFFSET 0.000000 0.000000 0.000000 
							}
						}
					}
				}
			}
			JOINT RightArm
			{
				OFFSET -3.136600 1.374050 -0.404650 
				CHANNELS 3 Zrotation Yrotation Xrotation
				JOINT RightForeArm
				{
					OFFSET -5.241900 -0.000000 -0.000000 
					CHANNELS 3 Zrotation Yrotation Xrotation
					JOINT RightHand
					{
						OFFSET -3.444170 -0.000000 -0.000000 
						CHANNELS 3 Zrotation Yrotation Xrotation
						JOINT RightHandIndex1
						{
							OFFSET -0.622530 -0.000000 -0.000000 
							CHANNELS 3 Zrotation Yrotation Xrotation
							End Site
							{
								OFFSET 0.000000 0.000000 0.000000 
							}
						}
					}
				}
			}
		}
	}
}
MOTION
Frames: 6
Frame Time: 0.041667
9.784072 17.316269 -40.161939 -1.000415 -3.089609 8.538870 -15.758574 1.917128 -26.480175 7.677193 18.213368 56.356998 0.367474 -0.155224 5.633079 0.509900 -4.577300 -12.706800 18.001806 9.138415 -20.490341 0.375423 -12.045075 32.674252 -5.500320 12.206668 6.007362 -0.000000 -0.010500 0.028900 1.453087 2.840335 -3.642319 -0.563716 1.274264 -2.081722 5.502203 -2.167652 11.490307 1.246900 -0.876600 6.009900 -85.680070 -0.882545 42.059396 22.886733 -29.848038 -7.927059 -0.449391 0.722729 -16.939481 -7.125000 0.000000 0.000000 83.622227 -6.783453 17.711183 -12.026595 22.556737 -4.763946 2.709756 1.195309 0.707878 7.125000 0.000000 0.000000 
9.801557 17.332626 -39.851942 -1.412092 -3.420697 8.443777 -15.200583 1.799492 -27.809180 7.440835 18.212004 55.315884 -1.016527 4.771461 1.459384 2.641900 -10.091400 -29.273300 18.439884 8.821733 -19.329964 0.498849 -11.727106 32.123913 -5.688808 12.868061 5.902536 -0.005400 -0.474600 1.304100 1.442652 3.073851 -3.610200 -0.875745 1.416682 -2.099301 5.454935 -2.290174 11.439156 1.197500 -0.933700 5.976800 -85.893166 0.128071 41.450227 21.338546 -28.428862 -7.124355 -0.478091 0.803685 -16.018738 -7.125000 0.000000 0.000000 83.423723 -5.925491 20.371337 -13.274391 23.928175 -5.221126 2.676715 1.286590 -1.195934 7.125000 0.000000 0.000000 
9.808890 17.345486 -39.564507 -1.779327 -3.175211 8.761716 -14.498921 1.116196 -29.387441 6.821152 18.074514 53.727910 0.336814 0.450437 3.365024 0.920300 -6.112000 -17.109900 18.852209 8.126708 -18.728520 0.622944 -11.434772 31.540107 -5.868044 13.409442 5.703968 -0.024300 -1.006000 2.765400 1.461769 3.094086 -3.625031 -1.069476 1.456491 -2.152626 5.416092 -2.350082 11.334702 1.107600 -0.952300 5.892500 -86.045842 0.908389 41.036244 19.793533 -26.947224 -6.345594 -0.537553 0.869999 -15.310110 -7.125000 0.000000 0.000000 83.207870 -4.968542 21.918434 -14.509594 25.248374 -5.799158 2.677169 1.433777 -1.141480 7.125000 0.000000 0.000000 
9.818253 17.341538 -39.256654 -1.863748 -3.504957 8.876659 -14.214585 0.934425 -30.611688 6.223394 17.880219 52.081347 0.929313 -1.329066 3.577758 0.351200 -3.807400 -10.535500 18.965407 7.408986 -17.963965 0.751826 -11.112380 30.930085 -6.089408 14.149512 5.884258 -0.015800 -0.811500 2.230300 1.425033 3.363397 -3.608585 -1.218884 1.624922 -2.150658 5.555870 -2.405014 11.299153 1.180500 -0.969400 5.832900 -86.137503 1.835609 40.704394 18.400681 -25.578994 -5.659982 -0.623635 0.889887 -14.826494 -7.125000 0.000000 0.000000 82.908478 -4.219065 23.937526 -15.865550 26.682757 -6.426224 2.693745 1.501116 -1.734686 7.125000 0.000000 0.000000 
9.823780 17.341989 -38.940904 -1.830661 -3.939509 8.937810 -14.082139 0.911967 -31.695017 5.582580 17.612388 50.169360 0.854850 -0.767351 2.860454 0.496100 -4.515700 -12.532300 18.929756 6.816046 -17.071403 0.865192 -10.787808 30.313200 -6.289012 14.731441 5.897564 -0.000500 -0.144900 0.398200 1.381276 3.598249 -3.579495 -1.291592 1.780197 -2.060782 5.668056 -2.475247 11.316610 1.264700 -1.000600 5.855600 -86.208675 2.787182 39.856619 17.108821 -24.286196 -5.058383 -0.664850 0.904865 -14.144991 -7.125000 0.000000 0.000000 82.637829 -3.405959 26.326421 -17.368210 28.187668 -7.070733 2.689611 1.505470 -3.165597 7.125000 0.000000 0.000000 
9.832015 17.367935 -38.627636 -1.976526 -4.307488 9.040534 -13.763528 1.132837 -32.751580 4.827043 17.207226 47.808351 0.530837 0.553843 2.688998 0.770000 -5.603100 -15.637200 18.951575 6.452722 -16.026014 0.979096 -10.458307 29.707930 -6.530811 15.663473 6.035832 -0.002300 -0.310500 0.853100 1.370895 3.757720 -3.574727 -1.346352 1.893881 -2.069197 5.690725 -2.510748 11.383754 1.304600 -1.021600 5.930200 -86.471252 3.665580 38.521525 15.663156 -22.776968 -4.427318 -0.662983 0.951148 -13.016651 -7.125000 0.000000 0.000000 82.246447 -2.649585 28.329004 -18.914896 29.658923 -7.750928 2.658355 1.541255 -3.872670 7.125000 0.000000 0.000000 
